# xmcd
#
# Track frame offsets:
#  150
#  21905
#  40935
#  62334
#  84039
#  104439
#  128095
#  149708
#  166945
#  187749
#  205336
#  226010
#  249523
#  269773
#  285335
#  310607
#
# Disc length: 4371 seconds
#
# Revision: 0
# Processed by: cddbd v1.4b42PL1 Copyright (c) Steve Scherf et al.
# Submitted via: AltoMP3_Maker 3.0
#
DISCID=d1111110
DTITLE=’≈–≈’‹ - 2001’‹—°◊®ºØ
DYEAR=1900
DGENRE=
TTITLE0=“ÙπÏ 1
TTITLE1=“ÙπÏ 2
TTITLE2=“ÙπÏ 3
TTITLE3=“ÙπÏ 4
TTITLE4=“ÙπÏ 5
TTITLE5=“ÙπÏ 6
TTITLE6=“ÙπÏ 7
TTITLE7=“ÙπÏ 8
TTITLE8=“ÙπÏ 9
TTITLE9=“ÙπÏ 10
TTITLE10=“ÙπÏ 11
TTITLE11=“ÙπÏ 12
TTITLE12=“ÙπÏ 13
TTITLE13=“ÙπÏ 14
TTITLE14=“ÙπÏ 15
TTITLE15=“ÙπÏ 16
EXTD=
EXTT0=
EXTT1=
EXTT2=
EXTT3=
EXTT4=
EXTT5=
EXTT6=
EXTT7=
EXTT8=
EXTT9=
EXTT10=
EXTT11=
EXTT12=
EXTT13=
EXTT14=
EXTT15=
PLAYORDER=
